<svg xmlns="http://www.w3.org/2000/svg" id="Layer_1" x="0" y="0" version="1.1" viewBox="0 0 400 200" xml:space="preserve"><defs/><style>.st0{fill:#fff}</style><path d="M377.5 200h-355C10.1 200 0 189.9 0 177.5v-155C0 10.1 10.1 0 22.5 0h355C389.9 0 400 10.1 400 22.5v155c0 12.4-10.1 22.5-22.5 22.5z"/><path d="M20.4 120.7l3.4-20.7 77-30.2L97 92.4l-50.4 17.8.9-1.1-.5 2.6-.6-1.1 44.7 17.8-3.8 22.6-66.9-30.3zM171.9 39L119 161H98.2l52.9-122h20.8zM180.1 49.1h30.5l15.4 63.1h1.2l36.3-63.1H294L277.1 151h-24l10.4-62.6h-.8L228 150.3h-15.3L198.6 88h-.8l-10.5 62.9h-24l16.8-101.8zM376.2 120.7l-77.1 30.2 3.8-22.6 50.4-17.8-.8 1.1.5-2.6.5 1.1-44.7-17.8 3.8-22.6 67.1 30.2-3.5 20.8z" class="st0"/></svg>